<svg width="38" height="38" viewBox="0 0 38 38" fill="none" xmlns="http://www.w3.org/2000/svg">
<path fill-rule="evenodd" clip-rule="evenodd" d="M19 3.16667C10.2555 3.16667 3.16667 10.2555 3.16667 19C3.16667 27.7445 10.2555 34.8333 19 34.8333C27.7445 34.8333 34.8333 27.7445 34.8333 19C34.8333 10.2555 27.7445 3.16667 19 3.16667ZM0 19C0 8.50662 8.50662 0 19 0C29.4934 0 38 8.50662 38 19C38 29.4934 29.4934 38 19 38C8.50662 38 0 29.4934 0 19Z" fill="url(#paint0_linear_47_9)"/>
<path fill-rule="evenodd" clip-rule="evenodd" d="M15.1866 35.9985C15.0334 35.8008 15.0334 34.0397 15.1866 30.7153C13.5464 30.7719 12.5101 30.6581 12.0777 30.3738C11.4291 29.9473 10.7798 28.6321 10.2037 27.7052C9.62763 26.7783 8.34893 26.6318 7.8326 26.4246C7.31626 26.2174 7.18664 25.3727 9.25538 26.0115C11.3242 26.6503 11.425 28.3899 12.0777 28.7966C12.7303 29.2034 14.2905 29.0254 14.9978 28.6996C15.705 28.3737 15.653 27.1605 15.7791 26.6799C15.9386 26.2312 15.3766 26.1317 15.3642 26.1281C14.6738 26.1281 11.0467 25.3393 10.0504 21.8269C9.05414 18.3146 10.3375 16.0188 11.0221 15.0319C11.4785 14.374 11.4382 12.9718 10.901 10.8252C12.8514 10.5759 14.3564 11.1898 15.4163 12.6669C15.4173 12.6754 16.8057 11.8413 19 11.8413C21.1943 11.8413 21.9728 12.5207 22.5736 12.6669C23.1743 12.8131 23.6549 10.0813 27.3652 10.8252C26.5906 12.3477 25.9418 14.2502 26.437 15.0319C26.9321 15.8136 28.8754 18.2993 27.6817 21.8269C26.8859 24.1787 25.3215 25.6124 22.9886 26.1281C22.721 26.2134 22.5873 26.3512 22.5873 26.5412C22.5873 26.8262 22.9489 26.8573 23.47 28.1927C23.8173 29.083 23.8424 31.6256 23.5452 35.8207C22.7924 36.0123 22.2067 36.141 21.7882 36.2068C21.0461 36.3234 20.2403 36.3888 19.4486 36.414C18.6569 36.4393 18.382 36.4364 17.2875 36.3346C16.5578 36.2666 15.8575 36.1546 15.1866 35.9985Z" fill="url(#paint1_linear_47_9)"/>
<defs>
<linearGradient id="paint0_linear_47_9" x1="-1.34144" y1="-3.35093" x2="67.2524" y2="28.7993" gradientUnits="userSpaceOnUse">
<stop stop-color="#0FE3FF"/>
<stop offset="1" stop-color="#035F6B"/>
</linearGradient>
<linearGradient id="paint1_linear_47_9" x1="6.78427" y1="8.42753" x2="46.4727" y2="23.2867" gradientUnits="userSpaceOnUse">
<stop stop-color="#0FE3FF"/>
<stop offset="1" stop-color="#035F6B"/>
</linearGradient>
</defs>
</svg>
