<svg width="35" height="34" viewBox="0 0 35 34" fill="none" xmlns="http://www.w3.org/2000/svg">
<path d="M0 4C0 1.79086 1.79086 0 4 0H31C33.2091 0 35 1.79086 35 4V29.6C35 31.8091 33.2091 33.6 31 33.6H4C1.79086 33.6 0 31.8091 0 29.6V4ZM32.0833 6.9167C32.0833 4.70756 30.2925 2.9167 28.0833 2.9167H6.91664C4.7075 2.9167 2.91664 4.70756 2.91664 6.9167V26.6833C2.91664 28.8924 4.7075 30.6833 6.91664 30.6833H28.0833C30.2925 30.6833 32.0833 28.8924 32.0833 26.6833V6.9167ZM26.6292 25.1124C26.6292 25.9179 25.9762 26.5708 25.1708 26.5708V26.5708C24.3654 26.5708 23.7125 25.9179 23.7125 25.1125V17.5001C23.7125 15.6114 22.1814 14.0803 20.2928 14.0803C18.4041 14.0803 16.8729 15.6114 16.8729 17.5001V25.1124C16.8729 25.9179 16.22 26.5708 15.4146 26.5708V26.5708C14.6092 26.5708 13.9562 25.9179 13.9562 25.1124V17.5001C13.9562 14.0005 16.7932 11.1636 20.2927 11.1636C23.7922 11.1636 26.6291 14.0005 26.6291 17.5001L26.6292 25.1124ZM11.2875 25.1124C11.2875 25.9179 10.6346 26.5708 9.82915 26.5708V26.5708C9.02372 26.5708 8.37079 25.9179 8.37079 25.1124V12.6729C8.37079 11.8675 9.02372 11.2146 9.82915 11.2146V11.2146C10.6346 11.2146 11.2875 11.8675 11.2875 12.6729V25.1124ZM11.2292 8.42917C11.2292 9.20236 10.6023 9.82918 9.82915 9.82918C9.05595 9.82918 8.42914 9.20233 8.42914 8.42914C8.42914 7.65594 9.05595 7.02912 9.82915 7.02912C10.6023 7.02912 11.2292 7.65597 11.2292 8.42917ZM16.8729 16.7417C16.8729 17.5471 16.22 18.2 15.4146 18.2V18.2C14.6091 18.2 13.9562 17.5471 13.9562 16.7417V12.6729C13.9562 11.8675 14.6091 11.2146 15.4146 11.2146V11.2146C16.22 11.2146 16.8729 11.8675 16.8729 12.6729V16.7417Z" fill="black"/>
</svg>
